<?xml version="1.0" encoding="UTF-8"?>
<svg id="a" data-name="bg" xmlns="http://www.w3.org/2000/svg" viewBox="0 0 512 512">
  <defs>
    <style>
      .b {
        fill: #fff;
      }

      .c {
        fill: #404040;
      }
    </style>
  </defs>
  <rect class="c" width="512" height="512" rx="64" ry="64"/>
  <g>
    <path class="b" d="M304.29,324h-104c-8.82,0-16-7.18-16-16v-104c0-8.82,7.18-16,16-16h104c8.82,0,16,7.18,16,16v104c0,8.82-7.18,16-16,16ZM200.29,196c-4.41,0-8,3.59-8,8v104c0,4.41,3.59,8,8,8h104c4.41,0,8-3.59,8-8v-104c0-4.41-3.59-8-8-8h-104Z"/>
    <path class="b" d="M311.2,113h-145.42c-9.1,0-16.5,7.4-16.5,16.5v253c0,9.1,7.4,16.5,16.5,16.5h173.03c9.1,0,16.5-7.4,16.5-16.5v-225.39l-44.11-44.11ZM338.81,386h-173.03c-1.93,0-3.5-1.57-3.5-3.5v-253c0-1.93,1.57-3.5,3.5-3.5h135.43v42.99h41.1v213.51c0,1.93-1.57,3.5-3.5,3.5Z"/>
    <path class="b" d="M276.29,217h-10.01l-6,6h25.01v66h-66v-66h21l6-6h-27c-3.31,0-6,2.69-6,6v66c0,3.31,2.69,6,6,6h66c3.31,0,6-2.69,6-6v-66c0-3.31-2.69-6-6-6h-9Z"/>
    <polygon class="b" points="249.21 204 249.21 204.03 249.23 204 249.21 204"/>
    <path class="b" d="M299.23,204h-44.94c-3.31,0-6,2.69-6,6v22.34c-11.35,1.91-20,11.77-20,23.66,0,13.25,10.75,24,24,24s24-10.75,24-24c0-11.89-8.65-21.76-20-23.66v-22.34h42.94v92h-92v-92h29.97l6-6h-35.97c-3.31,0-6,2.69-6,6v92c0,3.31,2.69,6,6,6h92c3.31,0,6-2.69,6-6v-92c0-3.31-2.69-6-6-6Z"/>
    <g>
      <path class="b" d="M382.31,294.45l-12.89-12.89c3.32-3.32,5.92-7.16,7.8-11.53,1.88-4.37,2.83-9.05,2.83-14.02s-.94-9.65-2.83-14.02c-1.88-4.37-4.49-8.22-7.8-11.53l12.89-12.89c4.82,4.82,8.67,10.52,11.53,17.07,2.86,6.56,4.3,13.68,4.3,21.37s-1.43,14.59-4.3,21.14c-2.86,6.56-6.71,12.33-11.53,17.3Z"/>
      <path class="b" d="M407.87,320l-12.89-12.89c6.63-6.63,11.84-14.32,15.6-23.07s5.65-18.09,5.65-28.04-1.88-19.52-5.65-28.27-8.97-16.36-15.6-22.84l12.89-12.89c8.14,8.14,14.59,17.68,19.34,28.61,4.75,10.93,7.12,22.73,7.12,35.39s-2.37,24.24-7.12,35.17c-4.75,10.93-11.19,20.54-19.34,28.83Z"/>
    </g>
    <g>
      <path class="b" d="M118.15,277.14c-2.86-6.56-4.3-13.61-4.3-21.14s1.43-14.81,4.3-21.37,6.71-12.25,11.53-17.07l12.89,12.89c-3.32,3.32-5.92,7.16-7.8,11.53s-2.83,9.05-2.83,14.02.94,9.65,2.83,14.02,4.49,8.22,7.8,11.53l-12.89,12.89c-4.82-4.98-8.67-10.74-11.53-17.3Z"/>
      <path class="b" d="M84.8,291.17c-4.75-10.93-7.12-22.65-7.12-35.17s2.37-24.46,7.12-35.39c4.75-10.93,11.19-20.47,19.34-28.61l12.89,12.89c-6.63,6.48-11.84,14.1-15.6,22.84s-5.65,18.17-5.65,28.27,1.88,19.3,5.65,28.04,8.97,16.43,15.6,23.07l-12.89,12.89c-8.14-8.29-14.59-17.9-19.34-28.83Z"/>
    </g>
  </g>
</svg>